# xmcd
#
# Track frame offsets:
#	150
#	17873
#	27513
#	37833
#	49138
#	60030
#	71880
#	84388
#	98075
#	107885
#	120408
#	149333
#	166493
#	181088
#	193625
#	210185
#	219363
#
# Disc length: 3150 seconds
#
# Revision: 0
# Processed by: cddbd v1.5.2PL0 Copyright (c) Steve Scherf et al.
# Submitted via: EasyCDDAExtractor 10.2.0.1
#
DISCID=df0c4c11
DTITLE=Various Artist - Sonlite/Charity Records 
DYEAR=1991
DGENRE=Gospel
TTITLE0=Perkins Family - When It's My Time
TTITLE1=Down East Boys - That One Church
TTITLE2=Whisnants - Fly Away With Me
TTITLE3=Dixie Echoes - The Day Will Come
TTITLE4=Singing Ambassadors - Whole Lot Of Living
TTITLE5=Inheritance - The Runner
TTITLE6=Gann Brothers - Haven't You Heard
TTITLE7=Supernals - The Right Road
TTITLE8=Reffeitts - Running Back To Jesus
TTITLE9=McNichols - God Can Do It Again
TTITLE10=Perkins Family - When It's My Time
TTITLE11=Steve Wilson and The Wilsons - Helping Heart
TTITLE12=Lou Hobbs - Lady Lost In The Spirit
TTITLE13=Kingdom Heirs - Go Tell It On The Mountain
TTITLE14=Hoppers - Mary Wrapped A Present
TTITLE15=Kingdom Heirs - In A Manger
TTITLE16=Gann Brothers - Without Jesus
EXTD=
EXTT0=
EXTT1=
EXTT2=
EXTT3=
EXTT4=
EXTT5=
EXTT6=
EXTT7=
EXTT8=
EXTT9=
EXTT10=
EXTT11=
EXTT12=
EXTT13=
EXTT14=
EXTT15=
EXTT16=
PLAYORDER=
